<svg width="297" height="323" viewBox="0 0 297 323" fill="none" xmlns="http://www.w3.org/2000/svg">
    <path
        d="M291.5 53.5L297 43C270.5 21.5 222.003 0.499995 174 0.5C123 0.500006 78.5 27 50.5 50.5C22.5 74 3.5 116 1 149C-1.5 182 3.8147e-06 224.5 34 269.5C68 314.5 141 338.5 210.5 310.5C280 282.5 296.5 220.5 292.5 180C288.5 139.5 263.5 117 240 107C208.898 93.7651 159.5 96.5 145 93.5C119.5 88.2241 126 68 137 59C148 50 162 43 206.5 43C242.1 43 278 50 291.5 53.5Z"
        fill="#2487BA" />
</svg>
