<svg width="297" height="325" viewBox="0 0 297 325" fill="none" xmlns="http://www.w3.org/2000/svg">
    <path
        d="M291.297 53L296.797 42.5C270.297 21 221.799 -5.38005e-06 173.797 0C122.797 5.71599e-06 78.2965 26.5 50.2965 50C22.2965 73.5 3.29651 115.5 0.796509 148.5C-1.70349 181.5 -0.203487 224 33.7965 269C67.7965 314 140.797 341.5 210.297 313.5C279.797 285.5 296.297 223.5 292.297 183C288.297 142.5 263.297 116.5 239.797 106.5C208.694 93.2651 159.297 96 144.797 93C119.297 87.7241 128 71 139 62C150 53 165.797 42.5 210.297 42.5C245.897 42.5 277.797 49.5 291.297 53Z"
        fill="#2487BA" />
</svg>
